<svg width="20" height="28" viewBox="0 0 20 28" fill="none" xmlns="http://www.w3.org/2000/svg">
<g clip-path="url(#clip0_142_1375)">
<path d="M13.0443 0.465608C12.0909 0.169312 11.0508 0 9.98906 0C6.9338 0 4.18191 1.3545 2.34009 3.49206L7.06382 7.36508L13.0443 0.465608Z" fill="#1A73E8"/>
<path d="M2.34019 3.49207C0.888407 5.18519 0 7.38624 0 9.75661C0 11.5979 0.368364 13.0794 0.99675 14.4127L7.06392 7.36508L2.34019 3.49207Z" fill="#EA4335"/>
<path d="M10.0109 6.03177C12.1344 6.03177 13.8462 7.70373 13.8462 9.77781C13.8462 10.6879 13.4995 11.5344 12.9361 12.1905C12.9361 12.1905 15.948 8.67728 18.8949 5.26987C17.6815 2.98416 15.5797 1.24871 13.0445 0.465637L7.06396 7.36511C7.77902 6.56087 8.81911 6.03177 10.0109 6.03177Z" fill="#4285F4"/>
<path d="M10.0109 13.5026C7.8874 13.5026 6.17559 11.8307 6.17559 9.75659C6.17559 8.84653 6.50062 7.99997 7.064 7.36505L0.996826 14.4127C2.03691 16.6561 3.77039 18.4762 5.54721 20.7407L12.9362 12.1693C12.2211 12.9947 11.181 13.5026 10.0109 13.5026Z" fill="#FBBC04"/>
<path d="M12.8061 23.1111C16.143 18.0106 20.0217 15.7037 20.0217 9.77777C20.0217 8.14814 19.61 6.62433 18.8949 5.26984L5.54712 20.7407C6.1105 21.4603 6.69555 22.2857 7.25893 23.1323C9.29576 26.2011 8.73238 28.0212 10.0325 28.0212C11.3326 28.0212 10.7692 26.1799 12.8061 23.1111Z" fill="#34A853"/>
</g>
<defs>
<clipPath id="clip0_142_1375">
<rect width="20" height="28" fill="white"/>
</clipPath>
</defs>
</svg>
