<svg width="40" height="40" viewBox="0 0 40 40" fill="none" xmlns="http://www.w3.org/2000/svg">
<path d="M36.7918 40H3.20821C2.35734 40 1.54132 39.662 0.939663 39.0603C0.338007 38.4587 0 37.6427 0 36.7918L0 3.20821C0 2.35734 0.338007 1.54132 0.939663 0.939663C1.54132 0.338007 2.35734 0 3.20821 0L36.7918 0C37.6427 0 38.4587 0.338007 39.0603 0.939663C39.662 1.54132 40 2.35734 40 3.20821V36.7918C40 37.6427 39.662 38.4587 39.0603 39.0603C38.4587 39.662 37.6427 40 36.7918 40Z" fill="#FAE100"/>
<path d="M20 6.26526C14.4099 6.26526 9.87305 10.7967 9.87305 16.3868C9.87305 19.5734 12.0173 22.5061 14.048 24.7692C16.4299 27.4211 18.0448 30.6401 19.1736 34.0049C19.3086 34.4046 19.6543 34.599 20 34.599C20.3456 34.599 20.6913 34.3992 20.8263 34.0049C21.9497 30.6401 23.57 27.4265 25.9519 24.7692C27.9827 22.5061 30.1269 19.5788 30.1269 16.3868C30.1269 10.7967 25.5954 6.26526 20.0054 6.26526M20 19.7624C18.1366 19.7624 16.6243 18.2501 16.6243 16.3868C16.6243 14.5234 18.1366 13.0111 20 13.0111C21.8633 13.0111 23.3756 14.5234 23.3756 16.3868C23.3756 18.2501 21.8633 19.7624 20 19.7624Z" fill="#007DFF"/>
</svg>
