<svg width="71" height="26" viewBox="0 0 71 26" fill="none" xmlns="http://www.w3.org/2000/svg">
<g clip-path="url(#clip0_142_1259)">
<path d="M56.7995 26H14.1993C6.35692 26 0 20.1802 0 12.9995C0 5.81984 6.35692 0 14.1993 0H56.7995C64.6419 0 71 5.81984 71 12.9995C71 20.1802 64.6419 26 56.7995 26Z" fill="#FFE000"/>
<path d="M18.3518 6.17627C14.0709 6.17627 10.6021 8.68605 10.6021 11.7817C10.6021 13.639 11.8549 15.2832 13.7787 16.3036L12.8667 19.4234C12.7791 19.7226 13.1431 19.961 13.4244 19.788L17.3827 17.3413C17.7004 17.3699 18.0231 17.3871 18.3518 17.3871C22.6328 17.3871 26.1016 14.8773 26.1016 11.7817C26.1016 8.68596 22.6328 6.17627 18.3518 6.17627ZM33.4084 9.11531V14.6221C33.5545 14.6393 33.9234 14.6725 34.2729 14.6725C36.1856 14.6725 36.9211 13.4434 36.9211 11.507C36.9211 9.80552 36.4256 8.77818 34.8987 8.77818C34.402 8.77818 33.8504 8.91346 33.4084 9.11531ZM33.4084 16.3396V19.7919H30.7237V7.0607H32.6169L32.9482 7.86904C33.5192 7.34731 34.3825 6.79126 35.7814 6.79126C38.4113 6.79126 39.663 8.59358 39.6435 11.507C39.6435 14.5544 37.7125 16.5081 34.9535 16.5081C34.4202 16.5081 34.016 16.4737 33.4084 16.3396ZM46.8618 13.8982V12.2139H45.6296C44.2489 12.2139 43.55 12.6691 43.55 13.5783C43.55 14.2685 43.9372 14.6056 44.7274 14.6056C45.4641 14.6056 46.4028 14.2685 46.8618 13.8982ZM45.3349 10.6477H46.8618V10.3451C46.8618 9.3338 46.2372 8.86259 45.1511 8.86259C44.3232 8.86259 43.2566 9.08159 42.3921 9.46908L41.6555 7.81808C42.6125 7.21272 44.0845 6.79195 45.3898 6.79195C47.9649 6.79195 49.3639 8.03709 49.3639 10.4116V16.2555H47.4693L47.1929 15.4804C46.1081 16.205 45.1146 16.5077 44.2136 16.5077C42.2448 16.5077 41.1417 15.4299 41.1417 13.6116C41.1417 11.675 42.6124 10.6477 45.3349 10.6477ZM57.2512 15.3124C56.3136 17.6032 55.1911 19.2703 53.5547 20.1956L51.8987 18.7979C52.8557 18.0401 53.5351 17.2994 54.1244 16.3065L50.5558 7.39784L53.2222 6.7409L55.504 13.9652L57.7662 6.70762L60.3973 7.38059L57.2512 15.3124Z" fill="black"/>
</g>
<defs>
<clipPath id="clip0_142_1259">
<rect width="71" height="26" fill="white"/>
</clipPath>
</defs>
</svg>
